<?xml version="1.0" encoding="iso-8859-1"?>
<!-- Uploaded to: SVG Repo, www.svgrepo.com, Generator: SVG Repo Mixer Tools -->
<svg version="1.1" id="Layer_1" xmlns="http://www.w3.org/2000/svg" xmlns:xlink="http://www.w3.org/1999/xlink" 
	 viewBox="0 0 512 512" xml:space="preserve">
<path style="fill:#25B6D2;" d="M256,78.464c-119.712,0-216.768,97.056-216.768,216.768S136.288,512,256,512
	s216.768-97.056,216.768-216.768S375.712,78.464,256,78.464L256,78.464z"/>
<path d="M225.056,80.704c10.112-1.44,20.432-2.24,30.944-2.24s20.832,0.784,30.944,2.24V47.36h53.6V0H171.456v47.36h53.6V80.704z"/>
<g>
	<path style="fill:#E04F5F;" d="M119.616,126.8L78.784,85.968l-60.288,60.304l46.48,46.48
		C78.672,167.28,97.312,144.88,119.616,126.8z"/>
	<path style="fill:#E04F5F;" d="M447.024,192.752l46.48-46.48l-60.288-60.288l-40.832,40.832
		C414.688,144.88,433.328,167.28,447.024,192.752z"/>
</g>
<rect x="307.345" y="160.83" transform="matrix(-0.7071 -0.7071 0.7071 -0.7071 371.9379 624.6807)" width="16" height="148.959"/>
<circle cx="256.64" cy="294.672" r="40.672"/>
</svg>